<?xml version="1.0" encoding="utf-8"?>
<svg viewBox="0 0 890 252" xmlns="http://www.w3.org/2000/svg">
  <path d="M 346.047 0.429 L 444.967 201.429 L 343.853 201.429 L 244.933 0.429 L 346.047 0.429 Z M 344.475 200.429 L 443.361 200.429 L 345.425 1.429 L 246.539 1.429 L 344.475 200.429 Z" style="fill: none;" transform="matrix(-1, 0, 0, -1, 689.900085, 201.858002)"/>
  <path d="M 346.047 0.429 L 444.967 201.429 L 343.853 201.429 L 244.933 0.429 L 346.047 0.429 Z M 344.475 200.429 L 443.361 200.429 L 345.425 1.429 L 246.539 1.429 L 344.475 200.429 Z" style="fill: none;" transform="matrix(-1, 0, 0, -1, 689.900085, 201.858002)"/>
  <path d="M 20.099 198.673 L 59.973 120.387 L 59.973 0 L 20.096 0 L 20.099 198.673 Z" style="fill: rgb(23, 23, 23);"/>
  <path d="M 100.04 50.501 L 160.037 50.608 L 60.005 250.698 L 0 250.75 L 100.04 50.501 Z" style="fill: rgb(251, 57, 25);"/>
  <path d="M 511.539 203.392 L 536.269 153.983 L 511.567 103.662 L 460.604 103.662 L 511.539 203.392 Z" style="fill: rgb(82, 82, 82);" transform="matrix(-1, 0, 0, -1, 740.197266, 254)"/>
  <path d="M 308.291 235.35 Q 296.681 235.35 285.949 232.448 Q 275.216 229.545 268.466 224.955 L 277.241 205.245 Q 283.586 209.295 291.889 211.928 Q 300.191 214.56 308.426 214.56 Q 313.961 214.56 317.336 213.548 Q 320.711 212.535 322.264 210.848 Q 323.816 209.16 323.816 206.865 Q 323.816 203.625 320.846 201.735 Q 317.876 199.845 313.151 198.63 Q 308.426 197.415 302.689 196.2 Q 296.951 194.985 291.214 193.095 Q 285.476 191.205 280.751 188.168 Q 276.026 185.13 273.056 180.203 Q 270.086 175.275 270.086 167.715 Q 270.086 159.21 274.744 152.325 Q 279.401 145.44 288.716 141.255 Q 298.031 137.07 311.936 137.07 Q 321.251 137.07 330.229 139.163 Q 339.206 141.255 346.226 145.305 L 337.991 165.15 Q 331.241 161.505 324.626 159.683 Q 318.011 157.86 311.801 157.86 Q 306.266 157.86 302.891 159.008 Q 299.516 160.155 298.031 162.045 Q 296.546 163.935 296.546 166.365 Q 296.546 169.47 299.449 171.293 Q 302.351 173.115 307.144 174.263 Q 311.936 175.41 317.674 176.625 Q 323.411 177.84 329.149 179.663 Q 334.886 181.485 339.611 184.523 Q 344.336 187.56 347.239 192.488 Q 350.141 197.415 350.141 204.84 Q 350.141 213.075 345.484 220.028 Q 340.826 226.98 331.579 231.165 Q 322.331 235.35 308.291 235.35 Z" transform="matrix(0.866407, 0, 0, 1, 55.082512, -86)" style="fill: rgb(23, 23, 23); white-space: pre;"/>
  <path d="M 400.189 175.545 L 444.064 175.545 L 444.064 195.525 L 400.189 195.525 Z M 402.079 212.805 L 451.489 212.805 L 451.489 233.46 L 375.619 233.46 L 375.619 138.96 L 449.734 138.96 L 449.734 159.615 L 402.079 159.615 Z" transform="matrix(0.866407, 0, 0, 1, 55.082512, -86)" style="fill: rgb(23, 23, 23); white-space: pre;"/>
  <path d="M 468.191 233.46 L 509.906 138.96 L 536.231 138.96 L 578.081 233.46 L 550.271 233.46 L 517.601 152.055 L 528.131 152.055 L 495.461 233.46 Z M 491.006 215.1 L 497.891 195.39 L 544.061 195.39 L 550.946 215.1 Z" transform="matrix(0.866407, 0, 0, 1, 55.082512, -86)" style="fill: rgb(23, 23, 23); white-space: pre;"/>
  <path d="M 614.229 233.46 L 614.229 160.155 L 585.204 160.155 L 585.204 138.96 L 669.849 138.96 L 669.849 160.155 L 640.959 160.155 L 640.959 233.46 Z" transform="matrix(0.866407, 0, 0, 1, 55.082512, -86)" style="fill: rgb(23, 23, 23); white-space: pre;"/>
  <path d="M 714.5 233.46 L 714.5 160.155 L 685.475 160.155 L 685.475 138.96 L 770.12 138.96 L 770.12 160.155 L 741.23 160.155 L 741.23 233.46 Z" transform="matrix(0.866407, 0, 0, 1, 55.082512, -86)" style="fill: rgb(23, 23, 23); white-space: pre;"/>
  <path d="M 793.303 233.46 L 793.303 138.96 L 820.033 138.96 L 820.033 212.265 L 865.123 212.265 L 865.123 233.46 Z" transform="matrix(0.866407, 0, 0, 1, 55.082512, -86)" style="fill: rgb(23, 23, 23); white-space: pre;"/>
  <path d="M 913.417 175.545 L 957.292 175.545 L 957.292 195.525 L 913.417 195.525 Z M 915.307 212.805 L 964.717 212.805 L 964.717 233.46 L 888.847 233.46 L 888.847 138.96 L 962.962 138.96 L 962.962 159.615 L 915.307 159.615 Z" transform="matrix(0.866407, 0, 0, 1, 55.082512, -86)" style="fill: rgb(23, 23, 23); white-space: pre;"/>
  <path d="M 181.711 295.587 L 227.191 295.587 L 227.191 300.987 L 181.711 300.987 Z M 182.431 335.427 L 234.271 335.427 L 234.271 340.947 L 176.311 340.947 L 176.311 256.947 L 232.471 256.947 L 232.471 262.467 L 182.431 262.467 Z" transform="matrix(0.879794, 0, 0, 1, 377.726227, -90.495529)" style="fill: rgb(251, 57, 25); white-space: pre;"/>
  <path d="M 275.552 341.547 Q 266.192 341.547 257.852 338.367 Q 249.512 335.187 244.952 330.147 L 247.712 325.587 Q 252.032 330.027 259.532 333.087 Q 267.032 336.147 275.432 336.147 Q 283.832 336.147 289.172 333.927 Q 294.512 331.707 297.092 327.987 Q 299.672 324.267 299.672 319.707 Q 299.672 314.307 296.792 311.067 Q 293.912 307.827 289.232 305.907 Q 284.552 303.987 279.032 302.667 Q 273.512 301.347 267.872 299.847 Q 262.232 298.347 257.552 295.947 Q 252.872 293.547 250.052 289.407 Q 247.232 285.267 247.232 278.667 Q 247.232 272.667 250.352 267.627 Q 253.472 262.587 260.072 259.467 Q 266.672 256.347 276.992 256.347 Q 283.952 256.347 290.732 258.387 Q 297.512 260.427 302.312 263.907 L 300.032 268.827 Q 294.752 265.227 288.692 263.487 Q 282.632 261.747 276.992 261.747 Q 268.952 261.747 263.672 264.027 Q 258.392 266.307 255.872 270.087 Q 253.352 273.867 253.352 278.547 Q 253.352 283.947 256.172 287.187 Q 258.992 290.427 263.672 292.347 Q 268.352 294.267 273.992 295.587 Q 279.632 296.907 285.152 298.407 Q 290.672 299.907 295.352 302.307 Q 300.032 304.707 302.912 308.787 Q 305.792 312.867 305.792 319.347 Q 305.792 325.227 302.552 330.327 Q 299.312 335.427 292.652 338.487 Q 285.992 341.547 275.552 341.547 Z" transform="matrix(0.879794, 0, 0, 1, 377.726227, -90.495529)" style="fill: rgb(251, 57, 25); white-space: pre;"/>
  <path d="M 338.336 340.947 L 338.336 262.467 L 308.096 262.467 L 308.096 256.947 L 374.696 256.947 L 374.696 262.467 L 344.456 262.467 L 344.456 340.947 Z" transform="matrix(0.879794, 0, 0, 1, 377.726227, -90.495529)" style="fill: rgb(251, 57, 25); white-space: pre;"/>
  <path d="M 368.472 340.947 L 407.112 256.947 L 413.232 256.947 L 451.872 340.947 L 445.272 340.947 L 408.792 260.787 L 411.432 260.787 L 375.072 340.947 Z M 382.632 317.307 L 384.672 312.147 L 434.952 312.147 L 436.992 317.307 Z" transform="matrix(0.879794, 0, 0, 1, 377.726227, -90.495529)" style="fill: rgb(251, 57, 25); white-space: pre;"/>
  <path d="M 475.886 340.947 L 475.886 262.467 L 445.646 262.467 L 445.646 256.947 L 512.246 256.947 L 512.246 262.467 L 482.006 262.467 L 482.006 340.947 Z" transform="matrix(0.879794, 0, 0, 1, 377.726227, -90.495529)" style="fill: rgb(251, 57, 25); white-space: pre;"/>
  <path d="M 529.659 295.587 L 575.139 295.587 L 575.139 300.987 L 529.659 300.987 Z M 530.379 335.427 L 582.219 335.427 L 582.219 340.947 L 524.259 340.947 L 524.259 256.947 L 580.419 256.947 L 580.419 262.467 L 530.379 262.467 Z" transform="matrix(0.879794, 0, 0, 1, 377.726227, -90.495529)" style="fill: rgb(251, 57, 25); white-space: pre;"/>
  <path d="M 1.817 166.647 L 1.817 153.113 L 3.886 153.113 L 9.802 162.993 L 8.719 162.993 L 14.539 153.113 L 16.608 153.113 L 16.627 166.647 L 14.249 166.647 L 14.23 156.845 L 14.732 156.845 L 9.783 165.1 L 8.661 165.1 L 3.635 156.845 L 4.215 156.845 L 4.215 166.647 Z" transform="matrix(0, -1.758585, 1.401902, 0, -183.836884, 128.832733)" style="fill: rgb(247, 247, 247); line-height: 30.0241px; white-space: pre;"/>
  <path d="M 23.189 158.74 L 29.917 158.74 L 29.917 160.808 L 23.189 160.808 Z M 23.382 164.54 L 31.019 164.54 L 31.019 166.647 L 20.869 166.647 L 20.869 153.113 L 30.748 153.113 L 30.748 155.221 L 23.382 155.221 Z" transform="matrix(0, -1.758585, 1.401902, 0, -183.836884, 128.832733)" style="fill: rgb(247, 247, 247); line-height: 30.0241px; white-space: pre;"/>
  <path d="M 34.428 166.647 L 34.428 153.113 L 40.344 153.113 Q 42.548 153.113 44.211 153.964 Q 45.873 154.815 46.801 156.323 Q 47.729 157.831 47.729 159.88 Q 47.729 161.91 46.801 163.428 Q 45.873 164.946 44.211 165.796 Q 42.548 166.647 40.344 166.647 Z M 36.941 164.52 L 40.228 164.52 Q 41.755 164.52 42.867 163.94 Q 43.979 163.36 44.588 162.316 Q 45.197 161.272 45.197 159.88 Q 45.197 158.469 44.588 157.434 Q 43.979 156.4 42.867 155.82 Q 41.755 155.24 40.228 155.24 L 36.941 155.24 Z" transform="matrix(0, -1.758585, 1.401902, 0, -183.836884, 128.832733)" style="fill: rgb(247, 247, 247); line-height: 30.0241px; white-space: pre;"/>
  <path d="M 50.993 166.647 L 50.993 153.113 L 53.507 153.113 L 53.507 166.647 Z" transform="matrix(0, -1.758585, 1.401902, 0, -183.836884, 128.832733)" style="fill: rgb(247, 247, 247); line-height: 30.0241px; white-space: pre;"/>
  <path d="M 55.839 166.647 L 61.929 153.113 L 64.404 153.113 L 70.513 166.647 L 67.884 166.647 L 62.644 154.447 L 63.65 154.447 L 58.43 166.647 Z M 58.642 163.515 L 59.319 161.543 L 66.627 161.543 L 67.304 163.515 Z" transform="matrix(0, -1.758585, 1.401902, 0, -183.836884, 128.832733)" style="fill: rgb(247, 247, 247); line-height: 30.0241px; white-space: pre;"/>
  <path d="M 189.967 250.567 L 189.967 166.567 L 220.087 166.567 Q 230.647 166.567 238.207 169.927 Q 245.767 173.287 249.847 179.587 Q 253.927 185.887 253.927 194.887 Q 253.927 203.647 249.847 209.947 Q 245.767 216.247 238.207 219.667 Q 230.647 223.087 220.087 223.087 L 193.327 223.087 L 196.087 220.207 L 196.087 250.567 Z M 248.287 250.567 L 226.447 220.087 L 233.407 220.087 L 255.247 250.567 Z M 196.087 220.567 L 193.327 217.687 L 220.087 217.687 Q 233.647 217.687 240.667 211.687 Q 247.687 205.687 247.687 194.887 Q 247.687 183.967 240.667 178.027 Q 233.647 172.087 220.087 172.087 L 193.327 172.087 L 196.087 169.087 Z" style="fill: rgb(251, 57, 25); white-space: pre;"/>
  <path d="M 281.758 205.207 L 327.238 205.207 L 327.238 210.607 L 281.758 210.607 Z M 282.478 245.047 L 334.318 245.047 L 334.318 250.567 L 276.358 250.567 L 276.358 166.567 L 332.518 166.567 L 332.518 172.087 L 282.478 172.087 Z" style="fill: rgb(251, 57, 25); white-space: pre;"/>
  <path d="M 342.599 250.567 L 381.239 166.567 L 387.359 166.567 L 425.999 250.567 L 419.399 250.567 L 382.919 170.407 L 385.559 170.407 L 349.199 250.567 Z M 356.759 226.927 L 358.799 221.767 L 409.079 221.767 L 411.119 226.927 Z" style="fill: rgb(251, 57, 25); white-space: pre;"/>
  <path d="M 441.233 250.567 L 441.233 166.567 L 447.353 166.567 L 447.353 245.047 L 495.713 245.047 L 495.713 250.567 Z" style="fill: rgb(251, 57, 25); white-space: pre;"/>
  <path d="M 170.04 50.501 L 230.037 50.608 L 130.005 250.698 L 70 250.75 L 170.04 50.501 Z" style="fill: rgb(251, 57, 25);"/>
</svg>