<?xml version="1.0" encoding="UTF-8"?>
<svg id="Layer_1" data-name="Layer 1" xmlns="http://www.w3.org/2000/svg" viewBox="0 0 1192.14 317.25">
  <defs>
    <style>
      .cls-1 {
        letter-spacing: .1em;
      }

      .cls-2 {
        fill: #231f20;
      }

      .cls-3 {
        letter-spacing: -.1em;
      }

      .cls-4 {
        letter-spacing: .03em;
      }

      .cls-5 {
        stroke: #f15a29;
        stroke-miterlimit: 10;
        stroke-width: 7px;
      }

      .cls-5, .cls-6 {
        fill: #f15a29;
      }

      .cls-6 {
        font-size: 152px;
      }

      .cls-6, .cls-7 {
        font-family: Sansation-Bold, Sansation;
        font-weight: 700;
      }

      .cls-8 {
        letter-spacing: -.02em;
      }

      .cls-7 {
        font-size: 72px;
      }
    </style>
  </defs>
  <polygon class="cls-5" points="431.7 97.43 431.7 313.75 221.37 313.75 221.37 299.94 417.89 299.94 417.89 103.14 390.85 76.11 297.64 76.11 297.64 62.3 396.58 62.3 431.7 97.43"/>
  <path class="cls-5" d="m230.95,127.59l-111.75,112.01c-.08-.16-.16-.34-.24-.51-2.17-4.68-4.23-10.25-6.09-16.06-1.86-5.81-3.53-11.88-4.97-17.67-2.5-10.07-3.69-20.12-3.69-29.96,0-32.4,12.9-62.8,34.31-85.18,10.71-11.19,23.53-20.36,37.92-26.77,14.4-6.4,30.36-10.07,47.42-10.25h.1c.38-.01.77-.01,1.17-.01.59,0,1.18.01,1.77.01,16.25.23,31.9,3.86,46.29,10.2,21.59,9.52,40.3,25.2,53.64,44.59,13.35,19.4,21.33,42.46,21.67,66.82.01.59.01,1.18.01,1.77,0,16.37-3.19,31.98-8.98,46.27l-108.58-95.26Zm186.94,164.01l-67.43-59.16c7.63-17.06,11.87-35.98,11.87-55.86,0-.65,0-1.31-.01-1.96-.13-9.09-1.21-18.01-3.14-26.66-1.94-8.64-4.71-17.02-8.24-25.01-7.85-17.8-19.4-33.76-33.62-46.84-4.95-4.56-10.22-8.78-15.77-12.6-.59-.41-1.2-.81-1.8-1.21-21.11-14.07-46.14-22.53-72.67-22.91-.65,0-1.31-.01-1.96-.01-.47,0-.93,0-1.41.01-18.96.18-36.82,4.28-52.89,11.45-7.23,3.22-14.1,7.06-20.55,11.46H38.63L3.5,97.43v216.32h221.68c21.5,0,41.87-4.96,60-13.81H17.32V103.14l27.03-27.03h88.78c-7.81,7.42-14.72,15.75-20.59,24.79-14.08,21.68-22.14,47.45-22.14,74.5,0,10.96,1.33,22.13,4.1,33.31,2,8.01,4.42,16.63,7.28,24.66,1.43,4.03,2.97,7.91,4.65,11.53,1.66,3.62,3.46,6.97,5.49,9.94l4.68,6.94,114.98-115.26,78.54,68.93,23.25,20.38,10.61,9.32,10.53,9.22,51.94,45.58,13.8,12.1,9.11-10.38-11.46-10.05Z"/>
  <rect class="cls-2" x="209.41" y="202.09" width="23.18" height="23.18"/>
  <rect class="cls-2" x="241.4" y="202.09" width="23.18" height="23.18"/>
  <rect class="cls-2" x="209.41" y="233.85" width="23.18" height="23.18"/>
  <rect class="cls-2" x="241.4" y="233.85" width="23.18" height="23.18"/>
  <polygon class="cls-5" points="115.74 74.72 143.51 17.31 291.7 17.31 319.47 74.72 331.9 68.71 300.36 3.5 134.84 3.5 103.3 68.71 115.74 74.72 115.74 74.72"/>
  <text class="cls-6" transform="translate(460.75 233.85)"><tspan class="cls-1" x="0" y="0">SE</tspan><tspan class="cls-4" x="217.28" y="0">A</tspan><tspan class="cls-1" x="337.28" y="0">TTLE</tspan></text>
  <text class="cls-7" transform="translate(467.37 296.83)"><tspan class="cls-8" x="0" y="0" xml:space="preserve">REAL  ES</tspan><tspan class="cls-3" x="290.59" y="0">TA</tspan><tspan class="cls-8" x="369.93" y="0" xml:space="preserve">TE  MEDIA</tspan></text>
</svg>
