
<?xml version="1.0" encoding="UTF-8"?>
<svg id="Layer_1" data-name="Layer 1" xmlns="http://www.w3.org/2000/svg" viewBox="0 0 3085.97 2774.33">
  <defs>
    <style>
      .cls-1 {
        fill: #f48c2d;
      }

      .cls-2 {
        fill: #363636;
      }
    </style>
  </defs>
  <polygon class="cls-2" points="1801.15 474.15 1891.97 474.15 1891.97 460.06 1891.97 460.06 1815.24 460.06 1815.24 411.35 1801.15 423.86 1801.15 474.15"/>
  <path class="cls-1" d="m2055.2,331.03l-1.46-1.36v-45.51h12.91v-14.09h-38.76v14.09h11.76v32.4l-80.08-74.55-144.34,125.84v-76.07s0-76.72,0-76.72h277.53v125.22s14.09,12.88,14.09,12.88v-152.2h-76.52l-14.22-32.13h-81.73s-42.5,0-42.5,0l-14.22,32.13h-76.52v197.49s60.31-52.21,60.31-52.21l97.81-85.27,133.5,124.28v74.81h-76.73v14.09h90.81v-95.04s-35.57-33.12-35.57-33.12l-16.22-14.83.14-.14Zm-154.15-148.11h105.89l7.98,18.04h-121.85l7.98-18.04Z"/>
  <rect class="cls-2" x="1834.84" y="231.56" width="47.82" height="14.09"/>
  <rect class="cls-2" x="2042.75" y="173.92" width="47.82" height="14.09"/>
  <rect class="cls-2" x="1937.75" y="306.57" width="17.34" height="17.34"/>
  <rect class="cls-2" x="1961.46" y="306.57" width="17.34" height="17.34"/>
  <rect class="cls-2" x="1937.75" y="331.94" width="17.34" height="17.34"/>
  <rect class="cls-2" x="1961.46" y="331.94" width="17.34" height="17.34"/>
</svg>
