<?xml version="1.0" encoding="utf-8"?>
<svg viewBox="0 0 828 252" xmlns="http://www.w3.org/2000/svg">
  <path d="M 346.047 0.429 L 444.967 201.429 L 343.853 201.429 L 244.933 0.429 L 346.047 0.429 Z M 344.475 200.429 L 443.361 200.429 L 345.425 1.429 L 246.539 1.429 L 344.475 200.429 Z" style="fill: none;" transform="matrix(-1, 0, 0, -1, 689.900085, 201.858002)"/>
  <path d="M 346.047 0.429 L 444.967 201.429 L 343.853 201.429 L 244.933 0.429 L 346.047 0.429 Z M 344.475 200.429 L 443.361 200.429 L 345.425 1.429 L 246.539 1.429 L 344.475 200.429 Z" style="fill: none;" transform="matrix(-1, 0, 0, -1, 689.900085, 201.858002)"/>
  <path d="M 45.543 150.338 L 84.901 71.212 L 84.901 0.946 L 45.543 0.946 L 45.543 150.338 Z" style="fill: rgb(23, 23, 23);"/>
  <path d="M 99.318 50.338 L 183.459 50.781 L 84.901 250.338 L 1 250.338 L 99.318 50.338 Z" style="fill: rgb(251, 57, 25);"/>
  <path d="M 300.641 150.338 L 325.227 100.486 L 300.693 50.338 L 249.73 50.338 L 300.641 150.338 Z" style="fill: rgb(82, 82, 82);" transform="matrix(-1, 0, 0, -1, 574.956909, 200.675995)"/>
  <path d="M 189.4 50.781 L 273.541 51.224 L 174.983 250.781 L 91.082 250.781 L 189.4 50.781 Z" style="fill: rgb(251, 57, 25);"/>
  <path d="M 304.745 235.428 Q 293.921 235.428 283.835 232.968 Q 273.749 230.508 267.23 226.572 L 276.578 205.416 Q 282.728 208.983 290.293 211.136 Q 297.857 213.288 304.991 213.288 Q 309.173 213.288 311.572 212.735 Q 313.97 212.181 315.077 211.136 Q 316.184 210.09 316.184 208.614 Q 316.184 206.277 313.601 204.924 Q 311.018 203.571 306.775 202.649 Q 302.531 201.726 297.488 200.681 Q 292.445 199.635 287.341 197.913 Q 282.236 196.191 277.993 193.362 Q 273.749 190.533 271.166 185.921 Q 268.583 181.308 268.583 174.42 Q 268.583 166.425 273.073 159.845 Q 277.562 153.264 286.48 149.328 Q 295.397 145.392 308.681 145.392 Q 317.414 145.392 325.901 147.237 Q 334.388 149.082 341.153 152.895 L 332.42 173.928 Q 326.024 170.73 320.059 169.131 Q 314.093 167.532 308.435 167.532 Q 304.253 167.532 301.793 168.27 Q 299.333 169.008 298.288 170.238 Q 297.242 171.468 297.242 172.944 Q 297.242 175.158 299.825 176.45 Q 302.408 177.741 306.652 178.602 Q 310.895 179.463 316 180.447 Q 321.104 181.431 326.147 183.153 Q 331.19 184.875 335.434 187.704 Q 339.677 190.533 342.26 195.084 Q 344.843 199.635 344.843 206.4 Q 344.843 214.272 340.354 220.853 Q 335.864 227.433 327.008 231.431 Q 318.152 235.428 304.745 235.428 Z" transform="matrix(0.866407, 0, 0, 1, 96.082512, -89)" style="fill: rgb(51, 51, 51); white-space: pre;"/>
  <path d="M 380.409 179.34 L 418.785 179.34 L 418.785 200.25 L 380.409 200.25 Z M 382.377 211.566 L 425.427 211.566 L 425.427 233.46 L 353.841 233.46 L 353.841 147.36 L 423.828 147.36 L 423.828 169.254 L 382.377 169.254 Z" transform="matrix(0.866407, 0, 0, 1, 96.082512, -89)" style="fill: rgb(51, 51, 51); white-space: pre;"/>
  <path d="M 427.662 233.46 L 465.3 147.36 L 493.836 147.36 L 531.474 233.46 L 501.462 233.46 L 473.664 161.136 L 484.98 161.136 L 457.182 233.46 Z M 450.048 218.454 L 457.428 197.544 L 497.034 197.544 L 504.414 218.454 Z" transform="matrix(0.866407, 0, 0, 1, 96.082512, -89)" style="fill: rgb(51, 51, 51); white-space: pre;"/>
  <path d="M 550.933 233.46 L 550.933 169.869 L 525.718 169.869 L 525.718 147.36 L 605.176 147.36 L 605.176 169.869 L 579.961 169.869 L 579.961 233.46 Z" transform="matrix(0.866407, 0, 0, 1, 96.082512, -89)" style="fill: rgb(51, 51, 51); white-space: pre;"/>
  <path d="M 633 233.46 L 633 169.869 L 607.785 169.869 L 607.785 147.36 L 687.243 147.36 L 687.243 169.869 L 662.028 169.869 L 662.028 233.46 Z" transform="matrix(0.866407, 0, 0, 1, 96.082512, -89)" style="fill: rgb(51, 51, 51); white-space: pre;"/>
  <path d="M 695.136 233.46 L 695.136 147.36 L 724.164 147.36 L 724.164 210.951 L 763.032 210.951 L 763.032 233.46 Z" transform="matrix(0.866407, 0, 0, 1, 96.082512, -89)" style="fill: rgb(51, 51, 51); white-space: pre;"/>
  <path d="M 797.992 179.34 L 836.368 179.34 L 836.368 200.25 L 797.992 200.25 Z M 799.96 211.566 L 843.01 211.566 L 843.01 233.46 L 771.424 233.46 L 771.424 147.36 L 841.411 147.36 L 841.411 169.254 L 799.96 169.254 Z" transform="matrix(0.866407, 0, 0, 1, 96.082512, -89)" style="fill: rgb(51, 51, 51); white-space: pre;"/>
  <path d="M 175.677 340.947 L 175.677 260.587 L 204.491 260.587 Q 214.594 260.587 221.826 263.801 Q 229.059 267.016 232.962 273.043 Q 236.865 279.07 236.865 287.68 Q 236.865 296.06 232.962 302.087 Q 229.059 308.114 221.826 311.386 Q 214.594 314.658 204.491 314.658 L 178.891 314.658 L 181.531 311.903 L 181.531 340.947 Z M 231.469 340.947 L 210.576 311.788 L 217.234 311.788 L 238.128 340.947 Z M 181.531 312.247 L 178.891 309.492 L 204.491 309.492 Q 217.464 309.492 224.18 303.752 Q 230.895 298.012 230.895 287.68 Q 230.895 277.233 224.18 271.55 Q 217.464 265.868 204.491 265.868 L 178.891 265.868 L 181.531 262.998 Z" transform="matrix(0.879794, 0, 0, 1, 79.029808, -93)" style="fill: rgb(251, 57, 25); white-space: pre;"/>
  <path d="M 256.793 297.553 L 300.302 297.553 L 300.302 302.719 L 256.793 302.719 Z M 257.482 335.666 L 307.075 335.666 L 307.075 340.947 L 251.627 340.947 L 251.627 260.587 L 305.353 260.587 L 305.353 265.868 L 257.482 265.868 Z" transform="matrix(0.879794, 0, 0, 1, 79.029808, -93)" style="fill: rgb(251, 57, 25); white-space: pre;"/>
  <path d="M 308.289 340.947 L 345.255 260.587 L 351.11 260.587 L 388.075 340.947 L 381.761 340.947 L 346.862 264.261 L 349.388 264.261 L 314.603 340.947 Z M 321.836 318.331 L 323.787 313.395 L 371.888 313.395 L 373.84 318.331 Z" transform="matrix(0.879794, 0, 0, 1, 79.029808, -93)" style="fill: rgb(251, 57, 25); white-space: pre;"/>
  <path d="M 395.962 340.947 L 395.962 260.587 L 401.817 260.587 L 401.817 335.666 L 448.081 335.666 L 448.081 340.947 Z" transform="matrix(0.879794, 0, 0, 1, 79.029808, -93)" style="fill: rgb(251, 57, 25); white-space: pre;"/>
  <path d="M 484.378 297.553 L 527.888 297.553 L 527.888 302.719 L 484.378 302.719 Z M 485.067 335.666 L 534.661 335.666 L 534.661 340.947 L 479.212 340.947 L 479.212 260.587 L 532.939 260.587 L 532.939 265.868 L 485.067 265.868 Z" transform="matrix(0.879794, 0, 0, 1, 79.029808, -93)" style="fill: rgb(251, 57, 25); white-space: pre;"/>
  <path d="M 570.446 341.521 Q 561.492 341.521 553.513 338.479 Q 545.534 335.437 541.172 330.615 L 543.812 326.253 Q 547.945 330.5 555.12 333.428 Q 562.295 336.355 570.331 336.355 Q 578.367 336.355 583.476 334.231 Q 588.584 332.107 591.053 328.549 Q 593.521 324.99 593.521 320.627 Q 593.521 315.461 590.766 312.362 Q 588.01 309.262 583.533 307.425 Q 579.056 305.589 573.775 304.326 Q 568.494 303.063 563.099 301.628 Q 557.703 300.193 553.226 297.897 Q 548.749 295.601 546.051 291.64 Q 543.353 287.68 543.353 281.366 Q 543.353 275.626 546.338 270.804 Q 549.323 265.983 555.637 262.998 Q 561.951 260.013 571.824 260.013 Q 578.482 260.013 584.968 261.965 Q 591.454 263.916 596.046 267.245 L 593.865 271.952 Q 588.814 268.508 583.017 266.844 Q 577.219 265.179 571.824 265.179 Q 564.132 265.179 559.081 267.36 Q 554.03 269.541 551.619 273.158 Q 549.208 276.774 549.208 281.251 Q 549.208 286.417 551.906 289.517 Q 554.604 292.616 559.081 294.453 Q 563.558 296.29 568.954 297.553 Q 574.349 298.815 579.63 300.25 Q 584.911 301.685 589.388 303.981 Q 593.865 306.277 596.62 310.181 Q 599.376 314.084 599.376 320.283 Q 599.376 325.908 596.276 330.787 Q 593.176 335.666 586.805 338.594 Q 580.434 341.521 570.446 341.521 Z" transform="matrix(0.879794, 0, 0, 1, 79.029808, -93)" style="fill: rgb(251, 57, 25); white-space: pre;"/>
  <path d="M 626.77 340.947 L 626.77 265.868 L 597.841 265.868 L 597.841 260.587 L 661.555 260.587 L 661.555 265.868 L 632.625 265.868 L 632.625 340.947 Z" transform="matrix(0.879794, 0, 0, 1, 79.029808, -93)" style="fill: rgb(251, 57, 25); white-space: pre;"/>
  <path d="M 651.874 340.947 L 688.839 260.587 L 694.694 260.587 L 731.66 340.947 L 725.346 340.947 L 690.447 264.261 L 692.972 264.261 L 658.188 340.947 Z M 665.42 318.331 L 667.372 313.395 L 715.473 313.395 L 717.425 318.331 Z" transform="matrix(0.879794, 0, 0, 1, 79.029808, -93)" style="fill: rgb(251, 57, 25); white-space: pre;"/>
  <path d="M 750.899 340.947 L 750.899 265.868 L 721.969 265.868 L 721.969 260.587 L 785.683 260.587 L 785.683 265.868 L 756.753 265.868 L 756.753 340.947 Z" transform="matrix(0.879794, 0, 0, 1, 79.029808, -93)" style="fill: rgb(251, 57, 25); white-space: pre;"/>
  <path d="M 798.615 297.553 L 842.124 297.553 L 842.124 302.719 L 798.615 302.719 Z M 799.304 335.666 L 848.897 335.666 L 848.897 340.947 L 793.449 340.947 L 793.449 260.587 L 847.175 260.587 L 847.175 265.868 L 799.304 265.868 Z" transform="matrix(0.879794, 0, 0, 1, 79.029808, -93)" style="fill: rgb(251, 57, 25); white-space: pre;"/>
  <path d="M 1.544 166.647 L 1.544 151.758 L 4.509 151.758 L 8.034 162.3 Q 8.521 163.773 8.745 164.504 Q 8.998 163.692 9.537 162.117 L 13.102 151.758 L 15.752 151.758 L 15.752 166.647 L 13.853 166.647 L 13.853 154.185 L 9.527 166.647 L 7.749 166.647 L 3.443 153.972 L 3.443 166.647 Z M 18.961 166.647 L 18.961 151.758 L 29.727 151.758 L 29.727 153.515 L 20.932 153.515 L 20.932 158.075 L 29.169 158.075 L 29.169 159.822 L 20.932 159.822 L 20.932 164.89 L 30.072 164.89 L 30.072 166.647 Z M 32.793 166.647 L 32.793 151.758 L 37.922 151.758 Q 39.659 151.758 40.573 151.971 Q 41.852 152.266 42.756 153.038 Q 43.934 154.033 44.518 155.582 Q 45.102 157.131 45.102 159.121 Q 45.102 160.817 44.706 162.127 Q 44.31 163.438 43.691 164.296 Q 43.071 165.154 42.335 165.647 Q 41.598 166.139 40.557 166.393 Q 39.516 166.647 38.166 166.647 Z M 34.763 164.89 L 37.942 164.89 Q 39.415 164.89 40.253 164.616 Q 41.091 164.342 41.588 163.844 Q 42.289 163.143 42.68 161.96 Q 43.071 160.777 43.071 159.091 Q 43.071 156.755 42.304 155.501 Q 41.538 154.246 40.441 153.82 Q 39.648 153.515 37.891 153.515 L 34.763 153.515 Z M 48.139 166.647 L 48.139 151.758 L 50.109 151.758 L 50.109 166.647 Z M 51.945 166.647 L 57.663 151.758 L 59.786 151.758 L 65.88 166.647 L 63.635 166.647 L 61.899 162.138 L 55.673 162.138 L 54.038 166.647 Z M 56.242 160.533 L 61.289 160.533 L 59.735 156.41 Q 59.024 154.531 58.679 153.322 Q 58.395 154.754 57.877 156.166 Z" transform="matrix(0, -1.259269, 1.003859, 0, -95.519714, 91.080948)" style="fill: rgb(247, 247, 247); white-space: pre;"/>
</svg>