<?xml version="1.0" encoding="iso-8859-1"?>
<!-- Uploaded to: SVG Repo, www.svgrepo.com, Generator: SVG Repo Mixer Tools -->
<svg fill="#000000" height="800px" width="800px" version="1.1" id="Layer_1" xmlns="http://www.w3.org/2000/svg" xmlns:xlink="http://www.w3.org/1999/xlink" 
	 viewBox="0 0 511.915 511.915" xml:space="preserve">
<g>
	<g>
		<g>
			<polygon points="204.798,340.648 341.221,264.326 204.798,184.454 			"/>
			<path d="M506.914,148.693c-0.008-0.043-0.017-0.094-0.017-0.137c-0.213-1.604-5.376-39.637-21.743-57.498
				c-19.243-21.675-40.568-23.859-52.028-25.028l-3.268-0.358c-68.77-5.385-172.706-5.973-174.071-5.982
				c-1.041,0.009-104.977,0.597-174.123,6.025l-2.876,0.316c-11.46,1.169-32.777,3.354-51.942,24.934
				c-16.444,17.954-21.615,55.979-21.845,57.728C4.949,149.129,0,192.819,0,235.938v40.431c0,43.145,4.949,86.81,5.018,87.39
				c0.213,1.604,5.367,39.62,21.743,57.455c17.758,19.985,39.902,22.861,53.137,24.585c2.338,0.299,4.412,0.555,6.929,1.024
				c39.518,4.088,163.772,5.35,169.148,5.402c1.041,0,105.096-0.247,174.31-5.615l2.978-0.333
				c11.435-1.203,32.725-3.456,51.789-24.951c16.452-17.929,21.623-55.936,21.862-57.685c0.043-0.444,5.001-44.126,5.001-87.253
				v-40.44C511.915,192.819,506.957,149.129,506.914,148.693z M362.564,271.94l-162.133,90.701
				c-1.297,0.725-2.731,1.092-4.164,1.092c-1.493,0-2.987-0.393-4.318-1.169c-2.611-1.536-4.215-4.335-4.215-7.364V169.574
				c0-3.055,1.638-5.888,4.284-7.407c2.671-1.519,5.922-1.493,8.559,0.043l162.133,94.925c2.645,1.544,4.25,4.386,4.224,7.441
				C366.899,267.639,365.235,270.447,362.564,271.94z"/>
		</g>
	</g>
</g>
</svg>